<?xml version="1.0"?>
<svg xmlns="http://www.w3.org/2000/svg" width="311" height="143" viewBox="0 0 311 143" fill="none">
  <g stroke="#F7A8AE" stroke-width="3" stroke-miterlimit="10" stroke-linecap="round" stroke-linejoin="round">
    <path d="M177.733 65.0354C163.804 89.7687 145.488 83.5087 149.46 68.3963C151.219 61.7062 161.175 38.4119 170.143 42.251C184.349 48.3316 158.252 67.0816 153.948 70.1635C150.393 72.7087 137.967 83.3239 133.621 81.3155C127 78.2556 131.165 69.9472 133.381 65.0608C140.791 48.7144 148.524 32.5082 156.095 16.2355C150.669 28.2442 145.693 40.7072 139.112 52.1322C134.375 60.3567 130.837 69.0348 124.093 75.7764C115.993 83.8748 108.447 84.2734 112.263 73.403C117.98 57.1176 126.847 41.3302 133.94 25.5843C135.885 21.2662 141.444 12.3368 140.517 7.33684C138.653 -2.72716 127.687 2.76751 124.356 12.8528"/>
    <path d="M190.427 42.251C184.74 54.1802 177.573 64.2062 169.728 79.689"/>
    <path d="M90.6994 54.7254C85.7974 62.2806 80.7906 70.1578 81.8505 76.5245C83.7078 87.6849 94.1396 81.6885 100.636 71.1478C103.007 67.301 111.387 53.6573 109.499 48.3619C106.236 39.2067 95.7453 46.9489 90.6994 54.7254Z"/>
    <path d="M216.34 54.901C212.256 61.4969 208.647 67.7505 207.583 73.7354C207.048 76.7431 208.22 80.8421 212.044 80.8421C217.776 80.8421 224.291 72.327 229.011 65.1281C231.407 61.4745 236.128 51.3245 234.225 46.5187C231.928 40.7125 222.131 45.551 216.34 54.901V54.901Z"/>
    <path d="M239.183 45.4442C234.589 55.954 217.655 82.3239 229.509 82.3239C235.657 82.3239 237.976 76.5182 241.929 68.8447C247.643 57.751 248.789 52.7791 252.077 45.4442"/>
    <path d="M208.864 68.6697C204.912 76.3426 202.593 82.1489 196.444 82.1489C185.561 82.1489 196.076 65.5609 201.895 53.7869L202.695 51.715C205.535 43.8265 193.145 42.7229 187.963 47.1937"/>
    <path d="M11.0849 94.2806C53.9198 85.352 43.7068 20.8742 82.887 6.08884"/>
    <path d="M37.1005 55.5187C76.3854 85.5816 110.77 25.4926 63.9922 8.16752C29.2552 -4.69648 -23.4073 41.2702 16.0281 69.8264"/>
    <path d="M303.435 44.6245C296.603 56.8499 270.301 111.508 255.344 127.029C238.115 144.909 208.015 145.813 202.661 128.234C199.328 117.285 203.923 102.754 221.849 99.9567C243.935 96.5109 278.864 113.534 308.748 99.2749"/>
    <path d="M303.435 44.6244C298.815 53.1082 285.055 84.2806 274.515 83.613L275.523 83.6931C262.021 82.6171 275.123 60.9863 278.809 56.5926"/>
    <path d="M278.395 56.0197C278.395 56.0197 271.08 67.7791 264.576 64.6953C257.916 61.5369 268.976 50.4109 261.552 47.4046C254.045 44.3639 249.7 52.2453 247.031 57.9051"/>
  </g>
</svg>
