<?xml version="1.0"?>
<svg xmlns="http://www.w3.org/2000/svg" height="176" viewBox="0 0 349.14667 176" width="349.14667">
<g id="logo" fill="none" stroke="#f7a8ae" stroke-linecap="round" stroke-miterlimit="10" transform="matrix(.13333333 0 0 -.13333333 0 176)">
    <g stroke-width="29.031099">
        <path d="m1480.07 701.441c-104.47-185.5-241.84-138.55-212.05-25.207 13.19 50.176 87.86 224.883 155.12 196.09 106.55-45.605-89.18-186.23-121.46-209.344-26.66-19.089-119.86-98.703-152.45-83.64-49.66 22.949-18.42 85.262-1.8 121.91 55.57 122.598 113.57 244.145 170.35 366.19-40.69-90.065-78.01-183.538-127.37-269.225-35.53-61.684-62.06-126.77-112.64-177.332-60.75-60.738-117.348-63.727-88.731 17.801 42.881 122.14 109.381 240.546 162.581 358.64 14.59 32.386 56.28 99.356 49.33 136.856-13.98 75.48-96.23 34.27-121.21-41.37" stroke-linejoin="round"/>
        <path d="m1575.27 872.324c-42.65-89.469-96.4-164.664-155.24-280.785" stroke-linejoin="round"/>
        <path d="m827.316 778.766c-36.765-56.664-74.316-115.743-66.367-163.493 13.93-83.703 92.168-38.73 140.891 40.325 17.785 28.851 80.629 131.179 66.473 170.894-24.473 68.664-103.153 10.598-140.997-47.726z"/>
        <path d="m1769.62 777.449c-30.63-49.469-57.7-96.371-65.68-141.258-4.01-22.558 4.78-53.3 33.46-53.3 42.99 0 91.85 63.863 127.25 117.855 17.97 27.402 53.38 103.527 39.11 139.57-17.23 43.547-90.71 7.258-134.14-62.867z"/>
        <path d="m1940.94 848.375c-34.45-78.824-161.46-276.598-72.55-276.598 46.11 0 63.5 43.543 93.15 101.094 42.85 83.203 51.45 120.492 76.11 175.504"/>
        <path d="m1713.55 674.184c-29.64-57.547-47.03-101.094-93.15-101.094-81.62 0-2.76 124.41 40.88 212.715l6 15.539c21.3 59.164-71.62 67.441-110.49 33.91"/>
        <path d="m230.207 482.102c321.262 66.964 244.664 550.548 538.516 661.438"/>
        <path d="m425.324 772.816c294.637-225.472 552.52 225.196 201.688 355.134-260.528 96.48-655.4964-248.27-359.731-462.442"/>
        <path d="m2422.83 854.523c-51.24-91.691-248.5-501.625-360.68-618.035-129.22-134.097-354.97-140.8786-395.12-9.039-25 82.121 9.46 191.106 143.91 212.082 165.64 25.844 427.61-101.832 651.74 5.114"/>
        <path d="m2422.83 854.523c-34.65-63.628-137.85-297.421-216.9-292.414l7.56-.601c-101.26 8.07-3 170.301 24.65 203.254"/>
    </g>
    <path d="m2235.03 769.059s-54.86-88.196-103.64-65.067c-49.95 23.688 33 107.133-22.68 129.68-56.3 22.805-88.89-36.305-108.91-78.754" stroke-width="24.7932"/>
</g>
</svg>
